<svg height="35.869" viewBox="0 0 174.238 35.869" width="174.238" xmlns="http://www.w3.org/2000/svg"><g fill="#fff"><path d="m440.244 78.836a7.16 7.16 0 0 0 -4.751-1.868c-4 0-6.433 3.043-6.433 6.887 0 3.07 1.789 6.246 6.433 6.246a6.212 6.212 0 0 0 4.218-1.5v-3.301h-4.778v-3.15h8.008v7.875a9.308 9.308 0 0 1 -7.448 3.363c-7.02 0-9.877-4.618-9.877-9.53 0-5.259 3.283-10.117 9.877-10.117a9.868 9.868 0 0 1 6.94 2.856z" transform="translate(-376.209 -65.217)"/><path d="m771.968 97.02v-18.686h3.5v18.686z" transform="translate(-682.34 -69.279)"/><path d="m830.789 97.02h3.844l-8.381-18.686h-3.844l-8.382 18.686h3.817l1.968-4.479h9.018zm-9.589-7.646 3.126-7.115 3.114 7.115z" transform="translate(-719.513 -69.279)"/><path d="m1057.339 78.836a7.16 7.16 0 0 0 -4.751-1.868c-4 0-6.433 3.043-6.433 6.887 0 3.07 1.789 6.246 6.433 6.246a6.212 6.212 0 0 0 4.218-1.5v-3.301h-4.778v-3.15h8.008v7.875a9.308 9.308 0 0 1 -7.448 3.363c-7.02 0-9.877-4.618-9.877-9.53 0-5.259 3.283-10.117 9.877-10.117a9.868 9.868 0 0 1 6.94 2.856z" transform="translate(-921.641 -65.217)"/><path d="m1225.5 78.106c-2.936 0-5.873.026-8.808.026v18.686h3.523v-5.5h5.285c9.158.002 9.132-13.212 0-13.212zm0 9.983h-5.285v-6.619h5.285a3.31 3.31 0 1 1 0 6.62z" transform="translate(-1075.419 -69.078)"/><path d="m1375.459 77.97a5.357 5.357 0 0 0 -4.431-2.082c-2.616 0-3.87 1.095-3.87 2.483 0 1.628 1.922 2.082 4.164 2.349 3.9.48 7.528 1.5 7.528 5.953 0 4.164-3.684 5.952-7.848 5.952-3.817 0-6.754-1.175-8.142-4.591l2.936-1.522c.827 2.056 2.99 2.963 5.259 2.963 2.215 0 4.3-.774 4.3-2.8 0-1.762-1.842-2.483-4.324-2.749-3.817-.454-7.341-1.468-7.341-5.659 0-3.843 3.791-5.419 7.234-5.445 2.909 0 5.926.827 7.341 3.71z" transform="translate(-1204.611 -64.404)"/><path d="m600.509 97.02h3.844l-8.381-18.686h-3.844l-8.382 18.686h3.817l1.968-4.479h9.018zm-9.586-7.646 3.126-7.115 3.114 7.115z" transform="translate(-515.975 -69.279)"/><path d="m0 35.87v-6.455l12.253-6.126-4.49-2.245-7.763 3.881v-2.7l8.708-4.353-3.525-1.759-5.183 2.587v-2.7l5.544-2.771-5.544-2.764v-10.465l8.009 12 2.263-1.131 9.947 14.891-20.219 10.109z" transform="translate(20.218 .001)"/><path d="m20.218 35.87-20.218-10.11 12.721-19.046 2.263 1.132 5.235-7.846 8.009 12 2.263-1.131 9.946 14.891-20.218 10.11zm-7.762-14.826-4.49 2.245 12.253 6.127 12.253-6.127-4.49-2.245-7.762 3.882-7.763-3.882zm2.579-4.931-3.525 1.763 8.708 4.354 8.708-4.354-3.526-1.763-5.181 2.587-5.183-2.592zm5.183-5.648-5.543 2.772 5.543 2.772 5.544-2.772z" opacity=".597" transform="translate(0 .001)"/><path d="m174.273 185.453v4.49l12.253-6.127-4.49-2.245z" opacity=".502" transform="translate(-154.054 -160.526)"/><path d="m179.817 93.24-5.544-2.772v5.544z" opacity=".502" transform="translate(-154.054 -80.003)"/><path d="m174.273 141.7v3.526l8.708-4.355-3.526-1.763z" opacity=".502" transform="translate(-154.054 -122.991)"/></g></svg>